<?xml version="1.0" encoding="UTF-8" standalone="no"?>
<svg
   width="71.199997"
   height="20"
   role="img"
   aria-label="Buy Me A Coffee: Donate"
   version="1.1"
   id="svg30"
   xmlns="http://www.w3.org/2000/svg"
   xmlns:svg="http://www.w3.org/2000/svg"
   xmlns:rdf="http://www.w3.org/1999/02/22-rdf-syntax-ns#"
   xmlns:cc="http://creativecommons.org/ns#"
   xmlns:dc="http://purl.org/dc/elements/1.1/">
  <defs
     id="defs34">
    <linearGradient
       id="workflow-fill"
       x1="19.179085"
       y1="0"
       x2="19.179085"
       y2="38.35817"
       gradientTransform="scale(1.9179085,0.52140129)"
       gradientUnits="userSpaceOnUse">
      <stop
         stop-color="#444D56"
         offset="0%"
         id="stop1025" />
      <stop
         stop-color="#24292E"
         offset="100%"
         id="stop1027" />
    </linearGradient>
    <linearGradient
       id="state-fill"
       x1="0.5"
       y1="0"
       x2="0.5"
       y2="1">
      <stop
         stop-color="#D73A49"
         offset="0%"
         id="stop1030" />
      <stop
         stop-color="#CB2431"
         offset="100%"
         id="stop1032" />
    </linearGradient>
  </defs>
  <title
     id="title2">Buy Me A Coffee: Donate</title>
  <linearGradient
     id="s"
     x2="0"
     y2="54.772255"
     gradientTransform="matrix(2.7386128,0,0,0.36514837,-5.5656844,18.995008)"
     x1="0"
     y1="0"
     gradientUnits="userSpaceOnUse">
    <stop
       offset="0"
       stop-color="#bbb"
       stop-opacity=".1"
       id="stop4" />
    <stop
       offset="1"
       stop-opacity=".1"
       id="stop6" />
  </linearGradient>
  <clipPath
     id="r">
    <rect
       width="150"
       height="20"
       rx="3"
       fill="#ffffff"
       id="rect9"
       x="0"
       y="0" />
  </clipPath>
  <metadata
     id="metadata851">
    <rdf:RDF>
      <cc:Work
         rdf:about="">
        <dc:title>Buy Me A Coffee: Donate</dc:title>
      </cc:Work>
    </rdf:RDF>
  </metadata>
  <g
     style="fill:none"
     id="g925"
     transform="scale(0.13071895)">
    <path
       d="M 0,24.48 C 0,10.9601 10.9601,0 24.48,0 H 520.2 c 13.52,0 24.48,10.9601 24.48,24.48 v 104.04 c 0,13.52 -10.96,24.48 -24.48,24.48 H 24.48 C 10.9601,153 0,142.04 0,128.52 Z"
       fill="#ffdd00"
       id="path859"
       style="fill:#ff813f" />
    <path
       d="m 109.522,50.3178 -0.067,-0.0395 -0.156,-0.0475 c 0.063,0.0528 0.141,0.0834 0.223,0.087 z"
       fill="#0d0c22"
       id="path861" />
    <path
       d="m 110.507,57.3134 -0.075,0.021 z"
       fill="#0d0c22"
       id="path863" />
    <path
       d="m 109.549,50.3062 c -0.009,-0.0011 -0.017,-0.0031 -0.025,-0.0059 -0.001,0.0055 -0.001,0.011 0,0.0165 0.009,-0.0012 0.017,-0.0049 0.025,-0.0106 z"
       fill="#0d0c22"
       id="path865" />
    <path
       d="m 109.523,50.3205 h 0.013 v -0.0078 z"
       fill="#0d0c22"
       id="path867" />
    <path
       d="m 110.447,57.3006 0.113,-0.0645 0.042,-0.0238 0.038,-0.0408 c -0.071,0.031 -0.137,0.0747 -0.193,0.1291 z"
       fill="#0d0c22"
       id="path869" />
    <path
       d="m 109.715,50.4713 -0.111,-0.1054 -0.075,-0.0408 c 0.041,0.0712 0.107,0.1237 0.186,0.1462 z"
       fill="#0d0c22"
       id="path871" />
    <path
       d="m 81.8801,118.353 c -0.0885,0.038 -0.1659,0.098 -0.2253,0.174 l 0.0698,-0.045 c 0.0474,-0.043 0.1146,-0.095 0.1555,-0.129 z"
       fill="#0d0c22"
       id="path873" />
    <path
       d="m 98.0456,115.173 c 0,-0.1 -0.0488,-0.082 -0.0369,0.274 0,-0.029 0.0119,-0.058 0.0171,-0.086 0.0066,-0.063 0.0119,-0.125 0.0198,-0.188 z"
       fill="#0d0c22"
       id="path875" />
    <path
       d="m 96.3761,118.353 c -0.0884,0.038 -0.1658,0.098 -0.2252,0.174 l 0.0698,-0.045 c 0.0474,-0.043 0.1146,-0.095 0.1554,-0.129 z"
       fill="#0d0c22"
       id="path877" />
    <path
       d="m 70.4886,119.11 c -0.0671,-0.058 -0.1493,-0.097 -0.2371,-0.111 0.0711,0.035 0.1422,0.069 0.1897,0.095 z"
       fill="#0d0c22"
       id="path879" />
    <path
       d="m 67.9304,116.657 c -0.0104,-0.104 -0.0423,-0.204 -0.0935,-0.295 0.0363,0.094 0.0666,0.191 0.0909,0.29 z"
       fill="#0d0c22"
       id="path881" />
    <path
       d="m 85.1368,72.7737 c -3.5173,1.5057 -7.5088,3.2129 -12.6819,3.2129 -2.1641,-0.0043 -4.3176,-0.3012 -6.4022,-0.8826 l 3.5779,36.734 c 0.1266,1.535 0.8261,2.967 1.9594,4.01 1.1333,1.044 2.6176,1.623 4.1582,1.622 0,0 5.073,0.264 6.7658,0.264 1.8218,0 7.2848,-0.264 7.2848,-0.264 1.5403,0 3.0243,-0.579 4.1574,-1.622 1.133,-1.044 1.8323,-2.475 1.9589,-4.01 l 3.8321,-40.5924 c -1.7125,-0.5849 -3.4408,-0.9735 -5.3892,-0.9735 -3.3697,-0.0013 -6.0847,1.1592 -9.2212,2.5016 z"
       fill="#ffffff"
       id="path883"
       style="fill:#ffdd00" />
    <path
       d="m 54.9844,57.1021 0.0606,0.0566 0.0395,0.0237 c -0.0304,-0.0302 -0.064,-0.0572 -0.1001,-0.0803 z"
       fill="#0d0c22"
       id="path885" />
    <path
       d="m 116.299,53.7119 -0.538,-2.7176 c -0.484,-2.4384 -1.581,-4.7424 -4.084,-5.6237 -0.802,-0.2819 -1.713,-0.4031 -2.328,-0.9866 -0.615,-0.5836 -0.797,-1.4899 -0.939,-2.3304 -0.263,-1.5426 -0.511,-3.0865 -0.781,-4.6264 -0.233,-1.3239 -0.418,-2.8112 -1.025,-4.0257 -0.79,-1.6309 -2.43,-2.5846 -4.061,-3.2156 -0.836,-0.312 -1.689,-0.5759 -2.5546,-0.7904 -4.0745,-1.075 -8.3584,-1.4702 -12.5502,-1.6954 -5.0312,-0.2776 -10.0759,-0.194 -15.0952,0.2503 -3.7359,0.3398 -7.6707,0.7509 -11.2209,2.0431 -1.2976,0.473 -2.6346,1.0407 -3.6213,2.0432 -1.2106,1.2317 -1.6058,3.1366 -0.7219,4.6725 0.6284,1.0908 1.6928,1.8614 2.8217,2.3712 1.4705,0.6569 3.0062,1.1567 4.5816,1.4912 4.3867,0.9696 8.9302,1.3503 13.4117,1.5123 4.9671,0.2005 9.9423,0.038 14.8857,-0.4861 1.2225,-0.1343 2.4428,-0.2955 3.6609,-0.4834 1.4345,-0.22 2.3553,-2.0959 1.9325,-3.4027 -0.5059,-1.5623 -1.8653,-2.1683 -3.4027,-1.9325 -0.2265,0.0356 -0.4518,0.0685 -0.6784,0.1015 l -0.1633,0.0237 c -0.5208,0.0658 -1.0416,0.1273 -1.5624,0.1844 -1.0758,0.1159 -2.1542,0.2108 -3.2353,0.2845 -2.4212,0.1686 -4.8491,0.2464 -7.2756,0.2503 -2.3843,0 -4.77,-0.0672 -7.1491,-0.2239 -1.0855,-0.0712 -2.1683,-0.1616 -3.2485,-0.2714 -0.4914,-0.0514 -0.9814,-0.1054 -1.4715,-0.166 L 69.4199,35.903 69.3185,35.8886 68.835,35.8187 c -0.988,-0.1488 -1.976,-0.3201 -2.9534,-0.5269 -0.0986,-0.0219 -0.1869,-0.0767 -0.2501,-0.1555 -0.0632,-0.0788 -0.0977,-0.1769 -0.0977,-0.2779 0,-0.101 0.0345,-0.199 0.0977,-0.2778 0.0632,-0.0788 0.1515,-0.1337 0.2501,-0.1556 H 65.9 c 0.8471,-0.1805 1.7007,-0.3346 2.5569,-0.469 0.2855,-0.0447 0.5718,-0.0887 0.8589,-0.1317 h 0.0079 c 0.5362,-0.0356 1.075,-0.1317 1.6085,-0.195 4.6418,-0.4828 9.3112,-0.6474 13.9755,-0.4926 2.2644,0.0658 4.5276,0.1989 6.7815,0.4281 0.4848,0.0501 0.967,0.1028 1.4491,0.162 0.1844,0.0224 0.3702,0.0488 0.5559,0.0712 l 0.3741,0.054 c 1.0908,0.1624 2.1758,0.3596 3.2551,0.5915 1.5993,0.3477 3.6526,0.461 4.3646,2.2131 0.226,0.5559 0.329,1.1737 0.454,1.7573 l 0.16,0.7442 c 0.004,0.0134 0.007,0.0271 0.009,0.0409 0.377,1.7564 0.754,3.5128 1.131,5.2693 0.028,0.1297 0.029,0.2638 0.002,0.3938 -0.026,0.13 -0.079,0.2532 -0.155,0.3618 -0.076,0.1087 -0.174,0.2005 -0.287,0.2697 -0.113,0.0692 -0.24,0.1143 -0.371,0.1326 h -0.011 l -0.23,0.0316 -0.228,0.0303 c -0.722,0.094 -1.445,0.1818 -2.1684,0.2635 -1.4253,0.1624 -2.8528,0.303 -4.2826,0.4215 -2.841,0.2363 -5.6877,0.3913 -8.5402,0.465 -1.4534,0.0387 -2.9064,0.0567 -4.359,0.054 -5.7817,-0.0045 -11.5584,-0.3405 -17.3017,-1.0064 -0.6218,-0.0738 -1.2435,-0.1528 -1.8653,-0.2332 0.4821,0.062 -0.3504,-0.0474 -0.519,-0.0711 -0.3952,-0.0553 -0.7904,-0.1128 -1.1856,-0.1726 -1.3266,-0.1989 -2.6452,-0.4439 -3.9691,-0.6586 -1.6006,-0.2635 -3.1313,-0.1317 -4.579,0.6586 -1.1884,0.6503 -2.1502,1.6476 -2.7572,2.8586 -0.6244,1.291 -0.8101,2.6966 -1.0894,4.0837 -0.2793,1.3872 -0.714,2.8797 -0.5493,4.3037 0.3543,3.0733 2.5029,5.571 5.5933,6.1295 2.9073,0.5269 5.8305,0.9538 8.7615,1.3173 11.5138,1.4102 23.1458,1.5789 34.6956,0.5033 0.9406,-0.0879 1.8799,-0.1836 2.8174,-0.2872 0.293,-0.0322 0.59,0.0015 0.868,0.0988 0.278,0.0972 0.531,0.2554 0.74,0.463 0.209,0.2077 0.37,0.4595 0.469,0.737 0.099,0.2775 0.135,0.5737 0.105,0.8669 l -0.293,2.8427 c -0.589,5.7444 -1.178,11.4884 -1.767,17.2319 -0.615,6.0316 -1.2339,12.0628 -1.8565,18.093 -0.1757,1.699 -0.3513,3.397 -0.527,5.095 -0.1686,1.671 -0.1923,3.396 -0.5098,5.048 -0.5005,2.597 -2.2592,4.193 -4.8253,4.776 -2.351,0.535 -4.7526,0.816 -7.1636,0.838 -2.6728,0.014 -5.3444,-0.104 -8.0172,-0.09 -2.8533,0.016 -6.3482,-0.247 -8.5508,-2.371 -1.9351,-1.865 -2.2025,-4.786 -2.466,-7.311 -0.3513,-3.343 -0.6995,-6.686 -1.0446,-10.029 L 64.0887,82.0212 62.8359,69.9953 c -0.021,-0.1989 -0.0421,-0.3952 -0.0619,-0.5954 -0.1501,-1.4345 -1.1658,-2.8388 -2.7663,-2.7664 -1.3701,0.0606 -2.9271,1.2251 -2.7664,2.7664 l 0.9287,8.9156 1.9206,18.4426 c 0.5472,5.2389 1.093,10.4779 1.6375,15.7179 0.1054,1.004 0.2042,2.011 0.3148,3.014 0.602,5.486 4.7911,8.442 9.9787,9.274 3.0299,0.488 6.1335,0.588 9.2081,0.638 3.9414,0.063 7.9224,0.215 11.7993,-0.499 5.7448,-1.054 10.055,-4.89 10.67,-10.841 0.176,-1.717 0.352,-3.436 0.527,-5.154 0.584,-5.684 1.167,-11.3683 1.75,-17.053 l 1.904,-18.5743 0.874,-8.5125 c 0.043,-0.4221 0.222,-0.819 0.508,-1.1319 0.287,-0.3129 0.667,-0.5253 1.083,-0.6056 1.643,-0.3202 3.213,-0.8668 4.382,-2.117 1.86,-1.9905 2.23,-4.5856 1.572,-7.2018 z m -61.7938,1.8364 c 0.025,-0.0119 -0.0211,0.2028 -0.0408,0.303 -0.004,-0.1515 0.0039,-0.2859 0.0408,-0.303 z m 0.1594,1.233 c 0.0132,-0.0092 0.0527,0.0435 0.0935,0.1067 -0.0619,-0.058 -0.1014,-0.1014 -0.0948,-0.1067 z m 0.1568,0.2068 c 0.0566,0.0962 0.0869,0.1568 0,0 z m 0.3148,0.2556 h 0.0079 c 0,0.0092 0.0145,0.0184 0.0198,0.0276 -0.0088,-0.0101 -0.0185,-0.0194 -0.029,-0.0276 z m 55.1328,-0.3821 c -0.59,0.5612 -1.48,0.8221 -2.358,0.9525 -9.8538,1.4622 -19.851,2.2025 -29.8126,1.8758 -7.1293,-0.2437 -14.1836,-1.0354 -21.2418,-2.0326 -0.6916,-0.0975 -1.4411,-0.2239 -1.9167,-0.7337 -0.8958,-0.9617 -0.4558,-2.8982 -0.2226,-4.06 0.2134,-1.0644 0.6218,-2.4832 1.8877,-2.6347 1.976,-0.2318 4.2708,0.602 6.2257,0.8984 2.3536,0.3592 4.716,0.6468 7.0872,0.8629 10.1196,0.9221 20.4092,0.7785 30.4841,-0.5704 1.836,-0.2468 3.666,-0.5335 5.489,-0.8602 1.625,-0.2912 3.425,-0.8378 4.407,0.8444 0.673,1.146 0.762,2.6794 0.658,3.9743 -0.032,0.5642 -0.278,1.0949 -0.689,1.4833 z"
       fill="#0d0c22"
       id="path887" />
    <path
       fill-rule="evenodd"
       clip-rule="evenodd"
       d="m 170.036,84.2397 c -0.575,1.0981 -1.366,2.0545 -2.373,2.866 -1.007,0.8121 -2.181,1.4733 -3.524,1.9824 -1.342,0.5103 -2.693,0.8527 -4.051,1.0272 -1.359,0.1752 -2.678,0.16 -3.955,-0.0479 -1.279,-0.2066 -2.367,-0.6284 -3.261,-1.266 l 1.008,-10.4617 c 0.926,-0.3181 2.092,-0.6448 3.499,-0.9793 1.406,-0.334 2.852,-0.5734 4.339,-0.7164 1.487,-0.1436 2.892,-0.1267 4.219,0.0479 1.326,0.1751 2.373,0.5969 3.14,1.266 0.416,0.3818 0.768,0.7958 1.055,1.2418 0.288,0.4461 0.463,0.9079 0.528,1.3855 0.159,1.3375 -0.048,2.5557 -0.624,3.6545 z M 155.413,61.9545 c 0.671,-0.4139 1.479,-0.7806 2.421,-1.0994 0.943,-0.3175 1.91,-0.5412 2.901,-0.6684 0.99,-0.1267 1.957,-0.1437 2.901,-0.0479 0.942,0.0957 1.774,0.3582 2.493,0.7879 0.719,0.4303 1.254,1.0515 1.606,1.863 0.351,0.8127 0.447,1.8399 0.287,3.0817 -0.127,0.9873 -0.52,1.8236 -1.174,2.5079 -0.655,0.6854 -1.455,1.2581 -2.397,1.72 -0.943,0.4624 -1.942,0.8284 -2.996,1.0981 -1.056,0.2715 -2.071,0.4709 -3.045,0.5976 -0.975,0.1279 -1.822,0.2079 -2.541,0.2388 -0.719,0.0321 -1.191,0.0478 -1.415,0.0478 z m 19.801,15.5253 c -0.511,-1.114 -1.198,-2.0934 -2.061,-2.9382 -0.863,-0.8436 -1.887,-1.4563 -3.069,-1.8387 0.511,-0.414 1.015,-1.0667 1.511,-1.9588 0.495,-0.8909 0.918,-1.863 1.27,-2.9139 0.351,-1.0515 0.592,-2.1097 0.719,-3.1769 0.127,-1.0667 0.079,-1.9824 -0.143,-2.7473 -0.545,-1.9102 -1.399,-3.4072 -2.566,-4.4902 -1.167,-1.0824 -2.525,-1.8309 -4.075,-2.2454 -1.551,-0.4127 -3.26,-0.5012 -5.13,-0.2624 -1.87,0.2387 -3.78,0.7084 -5.729,1.409 0,-0.1588 0.016,-0.326 0.048,-0.5012 0.031,-0.1745 0.047,-0.3582 0.047,-0.5497 0,-0.4775 -0.239,-0.8909 -0.719,-1.2418 -0.479,-0.3503 -1.03,-0.5569 -1.653,-0.6212 -0.624,-0.063 -1.231,0.0715 -1.823,0.4061 -0.591,0.3345 -0.999,0.9485 -1.222,1.8387 -0.256,2.8667 -0.512,5.8448 -0.767,8.9333 -0.256,3.0896 -0.528,6.2108 -0.815,9.3641 -0.288,3.1526 -0.576,6.2817 -0.863,9.3865 -0.288,3.1054 -0.576,6.0908 -0.863,8.9568 0.096,0.86 0.335,1.5291 0.719,2.0067 0.383,0.4781 0.831,0.7648 1.342,0.86 0.511,0.0957 1.047,0.0072 1.606,-0.2631 0.559,-0.2697 1.047,-0.7406 1.463,-1.409 1.278,0.7006 2.717,1.1545 4.315,1.3618 1.598,0.2066 3.219,0.2066 4.867,0 1.645,-0.2073 3.267,-0.597 4.865,-1.1709 1.598,-0.5728 3.053,-1.2897 4.363,-2.1491 1.311,-0.86 2.413,-1.84 3.309,-2.9381 0.894,-1.0994 1.486,-2.2855 1.773,-3.5588 0.288,-1.306 0.368,-2.6114 0.24,-3.9175 -0.128,-1.3054 -0.448,-2.5151 -0.959,-3.6308 z"
       fill="#0d0c23"
       id="path889"
       style="fill:#ffffff" />
    <path
       fill-rule="evenodd"
       clip-rule="evenodd"
       d="m 221.989,102.702 c -0.175,1.051 -0.424,2.158 -0.743,3.321 -0.32,1.161 -0.695,2.221 -1.126,3.177 -0.432,0.955 -0.911,1.726 -1.438,2.316 -0.528,0.589 -1.096,0.836 -1.703,0.741 -0.479,-0.065 -0.783,-0.367 -0.91,-0.908 -0.129,-0.542 -0.129,-1.211 0,-2.006 0.127,-0.797 0.374,-1.697 0.742,-2.7 0.368,-1.003 0.816,-1.999 1.343,-2.985 0.528,-0.988 1.127,-1.935 1.798,-2.843 0.671,-0.9068 1.374,-1.6638 2.109,-2.2686 0.16,0.1909 0.232,0.6685 0.216,1.4333 -0.017,0.7643 -0.112,1.6723 -0.288,2.7223 z m 16.254,-20.7323 c -0.432,-0.4776 -0.959,-0.7479 -1.583,-0.8121 -0.623,-0.0637 -1.255,0.2866 -1.893,1.0509 -0.416,0.7642 -0.944,1.4969 -1.583,2.1975 -0.639,0.7012 -1.302,1.3376 -1.989,1.9109 -0.688,0.5727 -1.343,1.0672 -1.966,1.4806 -0.623,0.4145 -1.111,0.7169 -1.462,0.9078 -0.128,-1.0187 -0.201,-2.1175 -0.216,-3.2963 -0.017,-1.1782 0.008,-2.3721 0.072,-3.5824 0.095,-1.7199 0.295,-3.4551 0.599,-5.2072 0.304,-1.7514 0.743,-3.4714 1.319,-5.1599 0,-0.8909 -0.209,-1.6157 -0.624,-2.1733 -0.416,-0.5569 -0.919,-0.9078 -1.51,-1.0509 -0.592,-0.143 -1.198,-0.0636 -1.822,0.2388 -0.623,0.303 -1.158,0.8527 -1.606,1.6479 -0.383,1.0515 -0.823,2.2296 -1.318,3.5351 -0.496,1.306 -1.055,2.6357 -1.678,3.989 -0.624,1.3545 -1.319,2.6678 -2.086,3.9412 -0.767,1.2745 -1.606,2.4054 -2.517,3.392 -0.911,0.9873 -1.902,1.76 -2.972,2.317 -1.072,0.5575 -2.229,0.8042 -3.476,0.7406 -0.576,-0.1594 -0.992,-0.5891 -1.247,-1.2903 -0.256,-0.7 -0.408,-1.5764 -0.455,-2.6273 -0.048,-1.0509 0,-2.2054 0.143,-3.4636 0.144,-1.2575 0.336,-2.5078 0.576,-3.7496 0.239,-1.2424 0.503,-2.4206 0.79,-3.5351 0.288,-1.1145 0.559,-2.0545 0.815,-2.8187 0.384,-0.9231 0.384,-1.6964 0,-2.317 -0.383,-0.6212 -0.91,-1.0345 -1.581,-1.2424 -0.671,-0.2066 -1.375,-0.1982 -2.11,0.0243 -0.735,0.223 -1.263,0.7163 -1.582,1.4805 -0.544,1.3067 -1.04,2.7709 -1.487,4.3951 -0.447,1.6243 -0.807,3.3048 -1.078,5.04 -0.272,1.7363 -0.425,3.4563 -0.456,5.1599 -0.002,0.1109 0.003,0.2163 0.003,0.3266 -0.697,1.8515 -1.361,3.2509 -1.992,4.1873 -0.815,1.2108 -1.735,1.7363 -2.757,1.5763 -0.449,-0.1909 -0.743,-0.6364 -0.887,-1.3376 -0.145,-0.7 -0.192,-1.5599 -0.145,-2.5799 0.049,-1.0182 0.169,-2.1727 0.36,-3.463 0.193,-1.2897 0.431,-2.6272 0.719,-4.0127 0.288,-1.386 0.592,-2.7781 0.911,-4.1799 0.32,-1.4012 0.607,-2.723 0.864,-3.9654 -0.032,-1.1145 -0.36,-1.966 -0.984,-2.5557 -0.622,-0.5885 -1.494,-0.8194 -2.612,-0.6927 -0.767,0.3187 -1.335,0.7333 -1.702,1.2424 -0.368,0.509 -0.664,1.1624 -0.887,1.9581 -0.129,0.4146 -0.32,1.2424 -0.576,2.4848 -0.256,1.2412 -0.583,2.6673 -0.983,4.2751 -0.399,1.6091 -0.871,3.2885 -1.414,5.0399 -0.543,1.7515 -1.151,3.337 -1.821,4.7533 -0.672,1.417 -1.407,2.5557 -2.206,3.4157 -0.799,0.8594 -1.662,1.2103 -2.589,1.0509 -0.512,-0.0957 -0.839,-0.6212 -0.983,-1.5763 -0.144,-0.9558 -0.167,-2.1333 -0.072,-3.5351 0.096,-1.4012 0.288,-2.9382 0.575,-4.6097 0.288,-1.6721 0.583,-3.2563 0.887,-4.7538 0.304,-1.4964 0.584,-2.8188 0.84,-3.9648 0.255,-1.1467 0.431,-1.9109 0.527,-2.2927 0,-0.9236 -0.209,-1.6636 -0.623,-2.2218 -0.416,-0.5564 -0.919,-0.9073 -1.511,-1.0509 -0.592,-0.143 -1.199,-0.0636 -1.821,0.2388 -0.624,0.303 -1.159,0.8527 -1.607,1.6478 -0.16,0.86 -0.368,1.8558 -0.623,2.9861 -0.256,1.1302 -0.503,2.2927 -0.743,3.4872 -0.24,1.1945 -0.464,2.3648 -0.671,3.5114 -0.208,1.1467 -0.36,2.1497 -0.456,3.0097 -0.064,0.6685 -0.136,1.4891 -0.215,2.46 -0.081,0.9721 -0.121,1.9987 -0.121,3.0811 0,1.0837 0.08,2.1582 0.241,3.2248 0.159,1.0673 0.447,2.0467 0.862,2.9376 0.415,0.8921 0.999,1.6242 1.751,2.1975 0.75,0.5733 1.701,0.8915 2.852,0.9558 1.182,0.063 2.213,-0.0237 3.093,-0.2631 0.878,-0.2388 1.677,-0.6133 2.397,-1.123 0.719,-0.5085 1.374,-1.1139 1.966,-1.8151 0.59,-0.7 1.174,-1.4642 1.749,-2.2927 0.544,1.2109 1.247,2.1497 2.11,2.8187 0.863,0.6685 1.774,1.0673 2.733,1.194 0.958,0.1266 1.934,-0.0073 2.925,-0.4061 0.99,-0.3976 1.885,-1.0745 2.684,-2.0303 0.527,-0.586 1.023,-1.2521 1.489,-1.9884 0.198,0.3448 0.408,0.6775 0.645,0.9848 0.783,1.02 1.846,1.72 3.189,2.1024 1.438,0.3824 2.843,0.4467 4.218,0.1915 1.374,-0.2545 2.685,-0.7169 3.931,-1.3854 1.247,-0.6691 2.405,-1.4727 3.477,-2.4127 1.07,-0.9394 2.005,-1.9182 2.804,-2.9381 -0.032,0.7327 -0.048,1.426 -0.048,2.0781 0,0.6533 -0.016,1.3612 -0.047,2.126 -1.599,1.1152 -3.109,2.4527 -4.531,4.0127 -1.423,1.56 -2.67,3.2242 -3.74,4.9918 -1.071,1.767 -1.91,3.559 -2.516,5.374 -0.608,1.816 -0.904,3.512 -0.888,5.089 0.016,1.576 0.391,2.953 1.127,4.131 0.734,1.179 1.933,2.022 3.595,2.532 1.727,0.542 3.244,0.557 4.556,0.048 1.31,-0.51 2.452,-1.354 3.427,-2.532 0.975,-1.178 1.774,-2.603 2.398,-4.275 0.623,-1.672 1.118,-3.416 1.486,-5.231 0.367,-1.815 0.599,-3.6 0.695,-5.3503 0.096,-1.7521 0.096,-3.3133 0,-4.6823 2.749,-1.1461 5.002,-2.5952 6.76,-4.3473 1.758,-1.7502 3.212,-3.5981 4.363,-5.5411 0.351,-0.4776 0.471,-1.0509 0.36,-1.7194 -0.113,-0.669 -0.384,-1.2424 -0.815,-1.7199 z"
       fill="#0d0c23"
       id="path891"
       style="fill:#ffffff" />
    <path
       fill-rule="evenodd"
       clip-rule="evenodd"
       d="m 298.724,78.9135 c 0.096,-0.7321 0.24,-1.5048 0.431,-2.3169 0.192,-0.8121 0.432,-1.6006 0.72,-2.3648 0.287,-0.7642 0.623,-1.4248 1.007,-1.9824 0.383,-0.557 0.791,-0.9551 1.222,-1.1945 0.432,-0.2382 0.87,-0.2146 1.319,0.0715 0.479,0.2873 0.774,0.8921 0.887,1.8151 0.111,0.9248 0,1.9115 -0.336,2.9624 -0.336,1.0515 -0.935,2.0381 -1.798,2.9618 -0.863,0.9242 -2.03,1.5284 -3.5,1.8151 -0.064,-0.4448 -0.048,-1.0345 0.048,-1.7673 z m 16.612,1.9582 c -0.527,-0.1582 -1.03,-0.1745 -1.51,-0.0473 -0.479,0.1273 -0.783,0.4618 -0.91,1.0037 -0.257,1.0187 -0.665,2.0617 -1.224,3.1284 -0.559,1.0673 -1.246,2.0781 -2.06,3.0339 -0.815,0.9551 -1.735,1.7994 -2.757,2.5315 -1.024,0.7327 -2.094,1.2581 -3.213,1.5763 -1.119,0.3509 -2.046,0.3903 -2.78,0.1194 -0.736,-0.2697 -1.319,-0.7321 -1.75,-1.3848 -0.432,-0.6527 -0.744,-1.4412 -0.935,-2.3648 -0.192,-0.9237 -0.304,-1.8788 -0.336,-2.8667 1.822,0.1279 3.444,-0.1981 4.867,-0.9793 1.421,-0.7794 2.628,-1.8152 3.619,-3.1049 0.99,-1.2896 1.742,-2.7387 2.253,-4.3472 0.511,-1.6078 0.799,-3.2084 0.863,-4.8011 0.032,-1.497 -0.191,-2.7624 -0.671,-3.7975 -0.479,-1.0346 -1.127,-1.84 -1.942,-2.4127 -0.814,-0.5733 -1.75,-0.9079 -2.804,-1.003 -1.054,-0.0958 -2.126,0.0478 -3.213,0.4297 -1.311,0.446 -2.421,1.1702 -3.332,2.1739 -0.911,1.003 -1.67,2.166 -2.277,3.4872 -0.607,1.3218 -1.087,2.7466 -1.438,4.2751 -0.352,1.529 -0.608,3.0339 -0.767,4.5151 -0.144,1.329 -0.221,2.5999 -0.248,3.8266 -0.069,0.1557 -0.135,0.3054 -0.208,0.4721 -0.496,1.1315 -1.072,2.2381 -1.726,3.3205 -0.655,1.0831 -1.383,1.9909 -2.181,2.723 -0.799,0.7328 -1.63,0.9873 -2.493,0.7643 -0.512,-0.1267 -0.791,-0.717 -0.839,-1.7673 -0.048,-1.0515 0.007,-2.3569 0.167,-3.9175 0.16,-1.56 0.344,-3.249 0.552,-5.0642 0.207,-1.8151 0.311,-3.5502 0.311,-5.2066 0,-1.4333 -0.272,-2.8102 -0.815,-4.1326 -0.544,-1.3206 -1.287,-2.42 -2.229,-3.2957 -0.943,-0.8764 -2.038,-1.4576 -3.284,-1.7436 -1.247,-0.2873 -2.589,-0.0958 -4.027,0.5727 -1.439,0.6691 -2.582,1.6084 -3.428,2.8187 -0.848,1.2109 -1.623,2.4842 -2.326,3.8218 -0.256,-1.0194 -0.631,-1.966 -1.127,-2.8424 -0.495,-0.8757 -1.102,-1.64 -1.821,-2.2933 -0.72,-0.6521 -1.528,-1.1618 -2.421,-1.5285 -0.895,-0.3654 -1.839,-0.549 -2.83,-0.549 -0.958,0 -1.845,0.1836 -2.66,0.549 -0.815,0.3667 -1.558,0.8358 -2.23,1.4091 -0.671,0.5739 -1.278,1.2182 -1.822,1.9351 -0.543,0.7164 -1.023,1.4255 -1.438,2.1255 -0.065,-0.8279 -0.136,-1.5521 -0.215,-2.174 -0.081,-0.6205 -0.225,-1.146 -0.432,-1.5757 -0.208,-0.4303 -0.503,-0.7563 -0.887,-0.9794 -0.384,-0.2224 -0.927,-0.3345 -1.63,-0.3345 -0.352,0 -0.704,0.0715 -1.055,0.2145 -0.352,0.1437 -0.664,0.3431 -0.935,0.5976 -0.272,0.2558 -0.479,0.5654 -0.623,0.9315 -0.144,0.3661 -0.183,0.7885 -0.12,1.266 0.032,0.3509 0.12,0.7722 0.264,1.2661 0.143,0.4939 0.279,1.1394 0.407,1.9345 0.128,0.7964 0.232,1.76 0.312,2.8903 0.08,1.1309 0.103,2.5163 0.072,4.1563 -0.033,1.6406 -0.152,3.5587 -0.36,5.7562 -0.208,2.1976 -0.536,4.7454 -0.983,7.643 -0.064,0.669 0.192,1.2109 0.768,1.6248 0.575,0.4133 1.23,0.6521 1.965,0.7163 0.735,0.0637 1.431,-0.0642 2.086,-0.3818 0.655,-0.3194 1.031,-0.8763 1.126,-1.6721 0.096,-1.4969 0.28,-3.089 0.552,-4.7775 0.271,-1.6872 0.607,-3.3593 1.007,-5.0157 0.399,-1.6557 0.854,-3.232 1.366,-4.7296 0.511,-1.4969 1.079,-2.8181 1.702,-3.9648 0.624,-1.1466 1.271,-2.0618 1.942,-2.7466 0.671,-0.6848 1.374,-1.0273 2.11,-1.0273 0.894,0 1.589,0.4055 2.085,1.2176 0.495,0.8127 0.846,1.8563 1.055,3.129 0.207,1.2746 0.303,2.6685 0.288,4.1806 -0.017,1.5127 -0.081,2.9696 -0.192,4.3708 -0.112,1.4018 -0.24,2.6515 -0.384,3.7503 -0.144,1.0988 -0.248,1.8557 -0.311,2.269 0,0.7328 0.279,1.3134 0.838,1.7437 0.559,0.4296 1.182,0.6848 1.87,0.7642 0.688,0.08 1.334,-0.0479 1.942,-0.3824 0.607,-0.3346 0.959,-0.8988 1.055,-1.6958 0.319,-2.2927 0.759,-4.5932 1.318,-6.9023 0.559,-2.309 1.199,-4.3787 1.918,-6.2102 0.719,-1.8315 1.518,-3.3284 2.397,-4.4908 0.879,-1.1618 1.814,-1.7437 2.805,-1.7437 0.511,0 0.903,0.3509 1.174,1.0509 0.272,0.7006 0.408,1.6558 0.408,2.8661 0,0.8921 -0.072,1.8078 -0.215,2.7472 -0.145,0.9394 -0.312,1.9109 -0.504,2.9139 -0.192,1.0036 -0.36,2.0303 -0.504,3.0812 -0.143,1.0515 -0.215,2.1496 -0.215,3.2963 0,0.7963 0.08,1.7199 0.24,2.7708 0.159,1.0503 0.462,2.0467 0.91,2.9854 0.448,0.94 1.063,1.7358 1.847,2.3885 0.783,0.6527 1.781,0.9794 2.995,0.9794 1.823,0 3.436,-0.3903 4.843,-1.1703 1.406,-0.78 2.613,-1.7988 3.62,-3.0569 0.052,-0.0661 0.1,-0.1364 0.151,-0.2018 0.077,0.186 0.145,0.383 0.232,0.5599 0.687,1.4012 1.622,2.4836 2.805,3.2485 1.182,0.7642 2.573,1.186 4.172,1.266 1.597,0.0788 3.339,-0.2157 5.226,-0.8842 1.405,-0.5097 2.628,-1.1467 3.667,-1.9109 1.038,-0.7642 1.973,-1.6957 2.804,-2.7945 0.832,-1.0988 1.59,-2.3648 2.278,-3.7975 0.688,-1.4339 1.382,-3.0733 2.085,-4.9212 0.128,-0.5084 0.008,-0.9624 -0.359,-1.3611 -0.368,-0.3976 -0.815,-0.6764 -1.343,-0.8364 z"
       fill="#0d0c23"
       id="path893"
       style="fill:#ffffff" />
    <path
       fill-rule="evenodd"
       clip-rule="evenodd"
       d="m 341.393,75.5432 c -0.16,0.94 -0.375,1.9757 -0.647,3.1054 -0.272,1.1309 -0.615,2.3012 -1.031,3.5115 -0.415,1.2102 -0.927,2.3011 -1.534,3.272 -0.607,0.9721 -1.303,1.7436 -2.085,2.317 -0.784,0.5733 -1.686,0.8121 -2.709,0.7163 -0.512,-0.063 -0.904,-0.4133 -1.175,-1.0509 -0.272,-0.6363 -0.415,-1.449 -0.432,-2.4363 -0.016,-0.9867 0.072,-2.0697 0.264,-3.2484 0.192,-1.1776 0.487,-2.3327 0.888,-3.4636 0.399,-1.1297 0.886,-2.1733 1.461,-3.1291 0.576,-0.9551 1.239,-1.6957 1.99,-2.2211 0.751,-0.5255 1.575,-0.7715 2.469,-0.7406 0.895,0.0321 1.854,0.4775 2.877,1.3375 -0.065,0.4146 -0.176,1.0915 -0.336,2.0303 z m 17.044,3.6545 c -0.496,-0.2546 -1.007,-0.3097 -1.534,-0.1667 -0.527,0.143 -0.903,0.6291 -1.126,1.457 -0.128,0.8921 -0.416,1.9424 -0.863,3.1526 -0.448,1.2103 -1,2.3576 -1.654,3.4394 -0.656,1.083 -1.407,1.983 -2.254,2.6993 -0.847,0.717 -1.75,1.0437 -2.708,0.9788 -0.8,-0.063 -1.36,-0.4691 -1.678,-1.2175 -0.321,-0.7485 -0.488,-1.6873 -0.504,-2.8188 -0.017,-1.1297 0.096,-2.4036 0.335,-3.8211 0.24,-1.417 0.528,-2.8261 0.863,-4.2285 0.336,-1.4006 0.68,-2.7466 1.032,-4.0363 0.351,-1.2896 0.638,-2.3805 0.863,-3.272 0.255,-0.7964 0.175,-1.4727 -0.24,-2.0309 -0.416,-0.5564 -0.935,-0.9552 -1.558,-1.1939 -0.624,-0.2388 -1.256,-0.3025 -1.895,-0.191 -0.639,0.1116 -1.054,0.454 -1.246,1.0267 -1.886,-1.6242 -3.7,-2.5 -5.441,-2.6272 -1.743,-0.1273 -3.349,0.2551 -4.819,1.1466 -1.471,0.8915 -2.773,2.1812 -3.907,3.8697 -1.135,1.6884 -2.054,3.5272 -2.758,5.5175 -0.703,1.9902 -1.142,4.0211 -1.318,6.0908 -0.176,2.0702 -0.04,3.9575 0.408,5.6611 0.448,1.7036 1.238,3.0975 2.373,4.1793 1.134,1.083 2.677,1.6249 4.627,1.6249 0.863,0 1.694,-0.1752 2.493,-0.5255 0.798,-0.3509 1.534,-0.7648 2.205,-1.2424 0.671,-0.4776 1.262,-0.9794 1.775,-1.5048 0.51,-0.5255 0.91,-0.963 1.198,-1.3139 0.223,1.1466 0.591,2.1187 1.103,2.9145 0.51,0.7957 1.094,1.4496 1.749,1.9581 0.655,0.5091 1.343,0.8836 2.062,1.123 0.719,0.2388 1.415,0.3582 2.085,0.3582 1.503,0 2.908,-0.5097 4.22,-1.5291 1.31,-1.0181 2.485,-2.269 3.524,-3.7496 1.038,-1.4812 1.894,-3.0412 2.564,-4.6818 0.672,-1.6399 1.119,-3.0969 1.343,-4.3714 0.224,-0.4776 0.183,-0.9788 -0.12,-1.5042 -0.304,-0.5255 -0.703,-0.9152 -1.199,-1.1709 z"
       fill="#0d0c23"
       id="path895"
       style="fill:#ffffff" />
    <path
       fill-rule="evenodd"
       clip-rule="evenodd"
       d="m 444.738,105.571 c -0.271,1.082 -0.695,1.999 -1.271,2.747 -0.575,0.748 -1.294,1.138 -2.157,1.171 -0.543,0.031 -0.959,-0.256 -1.247,-0.86 -0.287,-0.606 -0.487,-1.386 -0.599,-2.341 -0.112,-0.956 -0.16,-2.023 -0.144,-3.201 0.016,-1.178 0.064,-2.341 0.144,-3.4874 0.079,-1.146 0.176,-2.2139 0.288,-3.2005 0.111,-0.9879 0.199,-1.7509 0.263,-2.2927 1.087,0.1272 1.991,0.5963 2.709,1.409 0.719,0.8121 1.271,1.7752 1.654,2.8903 0.384,1.1145 0.607,2.3173 0.672,3.6063 0.063,1.29 -0.041,2.476 -0.312,3.559 z m -17.356,0 c -0.271,1.082 -0.695,1.999 -1.27,2.747 -0.575,0.748 -1.295,1.138 -2.158,1.171 -0.543,0.031 -0.958,-0.256 -1.246,-0.86 -0.288,-0.606 -0.488,-1.386 -0.599,-2.341 -0.113,-0.956 -0.161,-2.023 -0.144,-3.201 0.015,-1.178 0.063,-2.341 0.144,-3.4874 0.079,-1.146 0.175,-2.2139 0.287,-3.2005 0.112,-0.9879 0.199,-1.7509 0.264,-2.2927 1.086,0.1272 1.99,0.5963 2.708,1.409 0.72,0.8121 1.271,1.7752 1.655,2.8903 0.384,1.1145 0.607,2.3173 0.671,3.6063 0.063,1.29 -0.041,2.476 -0.312,3.559 z m -17.81,-27.1335 c -0.033,0.7636 -0.105,1.4406 -0.217,2.0297 -0.112,0.5903 -0.263,0.9636 -0.455,1.123 -0.352,-0.1915 -0.784,-0.6842 -1.295,-1.4812 -0.511,-0.7957 -0.91,-1.6963 -1.199,-2.6994 -0.287,-1.003 -0.376,-1.9896 -0.263,-2.9617 0.111,-0.9709 0.615,-1.7267 1.51,-2.2691 0.351,-0.1909 0.655,-0.1194 0.911,0.2152 0.256,0.3345 0.463,0.8199 0.624,1.4569 0.159,0.6376 0.27,1.3697 0.335,2.1976 0.064,0.8284 0.08,1.6242 0.049,2.389 z m -4.244,9.5302 c -0.496,0.5248 -1.048,0.9787 -1.654,1.3612 -0.608,0.3824 -1.231,0.669 -1.87,0.86 -0.64,0.1915 -1.215,0.2387 -1.726,0.143 -1.438,-0.2861 -2.541,-0.9079 -3.308,-1.863 -0.767,-0.9552 -1.255,-2.0776 -1.462,-3.3672 -0.208,-1.2903 -0.185,-2.6679 0.072,-4.1327 0.255,-1.4648 0.686,-2.826 1.294,-4.0842 0.607,-1.2582 1.343,-2.3412 2.205,-3.2484 0.863,-0.9079 1.806,-1.4727 2.829,-1.6964 -0.384,1.6242 -0.511,3.3048 -0.384,5.04 0.128,1.7357 0.544,3.3678 1.247,4.8962 0.447,0.9249 0.983,1.7679 1.606,2.5321 0.624,0.7649 1.383,1.4176 2.278,1.9588 -0.256,0.5418 -0.632,1.0751 -1.127,1.6006 z m 53.05,-9.0526 c 0.096,-0.7321 0.239,-1.5055 0.432,-2.3176 0.191,-0.8115 0.431,-1.5999 0.718,-2.3642 0.288,-0.7648 0.624,-1.4254 1.008,-1.9824 0.384,-0.5569 0.79,-0.9557 1.222,-1.1945 0.432,-0.2388 0.871,-0.2151 1.318,0.0715 0.48,0.2873 0.775,0.8921 0.887,1.8151 0.112,0.9243 0,1.9109 -0.335,2.9624 -0.336,1.0509 -0.935,2.0382 -1.798,2.9612 -0.862,0.9248 -2.03,1.5291 -3.5,1.8157 -0.064,-0.4454 -0.048,-1.0345 0.048,-1.7672 z m 19.322,0 c 0.096,-0.7321 0.239,-1.5055 0.431,-2.3176 0.192,-0.8115 0.432,-1.5999 0.72,-2.3642 0.287,-0.7648 0.622,-1.4254 1.006,-1.9824 0.384,-0.5569 0.792,-0.9557 1.223,-1.1945 0.432,-0.2388 0.871,-0.2151 1.318,0.0715 0.48,0.2873 0.775,0.8921 0.887,1.8151 0.112,0.9243 0,1.9109 -0.335,2.9624 -0.336,1.0509 -0.935,2.0382 -1.798,2.9612 -0.863,0.9248 -2.03,1.5291 -3.5,1.8157 -0.064,-0.4454 -0.048,-1.0345 0.048,-1.7672 z m 17.955,2.7945 c -0.368,-0.3976 -0.815,-0.6764 -1.342,-0.8364 -0.528,-0.1588 -1.031,-0.1745 -1.511,-0.0472 -0.479,0.1272 -0.784,0.4618 -0.911,1.003 -0.256,1.0194 -0.663,2.0624 -1.222,3.1284 -0.56,1.0679 -1.247,2.0788 -2.062,3.0339 -0.815,0.9551 -1.734,1.8 -2.756,2.5321 -1.024,0.7327 -2.094,1.2582 -3.212,1.5757 -1.12,0.3515 -2.047,0.3909 -2.782,0.12 -0.735,-0.2703 -1.318,-0.7321 -1.75,-1.3848 -0.431,-0.6533 -0.742,-1.4412 -0.935,-2.3654 -0.191,-0.923 -0.304,-1.8782 -0.335,-2.866 1.822,0.1278 3.444,-0.1982 4.866,-0.9794 1.422,-0.78 2.629,-1.8158 3.621,-3.1054 0.99,-1.2891 1.741,-2.7382 2.252,-4.3466 0.511,-1.6085 0.799,-3.2085 0.864,-4.8012 0.031,-1.4969 -0.193,-2.763 -0.672,-3.7981 -0.479,-1.0345 -1.126,-1.8394 -1.941,-2.4121 -0.816,-0.5739 -1.75,-0.9079 -2.806,-1.0036 -1.054,-0.0958 -2.125,0.0485 -3.212,0.4297 -1.311,0.4466 -2.421,1.1709 -3.331,2.1739 -0.911,1.0036 -1.671,2.1666 -2.278,3.4872 -0.608,1.3224 -1.087,2.7466 -1.439,4.2757 -0.352,1.5285 -0.607,3.0339 -0.766,4.5145 -0.156,1.4369 -0.24,2.8121 -0.259,4.1284 -0.121,0.2624 -0.25,0.5261 -0.389,0.7915 -0.56,1.0679 -1.247,2.0788 -2.062,3.0339 -0.814,0.9551 -1.734,1.8 -2.756,2.5321 -1.023,0.7327 -2.094,1.2582 -3.212,1.5757 -1.12,0.3515 -2.046,0.3909 -2.781,0.12 -0.736,-0.2703 -1.319,-0.7321 -1.75,-1.3848 -0.431,-0.6533 -0.743,-1.4412 -0.935,-2.3654 -0.192,-0.923 -0.304,-1.8782 -0.336,-2.866 1.822,0.1278 3.444,-0.1982 4.867,-0.9794 1.421,-0.78 2.628,-1.8158 3.619,-3.1054 0.991,-1.2891 1.742,-2.7382 2.253,-4.3466 0.511,-1.6085 0.8,-3.2085 0.863,-4.8012 0.032,-1.4969 -0.191,-2.763 -0.67,-3.7981 -0.48,-1.0345 -1.128,-1.8394 -1.943,-2.4121 -0.815,-0.5739 -1.749,-0.9079 -2.804,-1.0036 -1.055,-0.0958 -2.126,0.0485 -3.212,0.4297 -1.312,0.4466 -2.422,1.1709 -3.332,2.1739 -0.911,1.0036 -1.671,2.1666 -2.278,3.4872 -0.607,1.3224 -1.086,2.7466 -1.438,4.2757 -0.352,1.5285 -0.608,3.0339 -0.767,4.5145 -0.091,0.8351 -0.151,1.6448 -0.196,2.4399 -0.309,0.2619 -0.61,0.5255 -0.931,0.7843 -1.102,0.8921 -2.262,1.6957 -3.476,2.4127 -1.215,0.7169 -2.478,1.306 -3.787,1.7678 -1.312,0.4618 -2.654,0.7406 -4.028,0.8358 l 2.973,-31.7202 c 0.192,-0.6691 0.096,-1.2575 -0.288,-1.7672 -0.383,-0.5097 -0.879,-0.86 -1.486,-1.0509 -0.607,-0.1915 -1.255,-0.1752 -1.942,0.0473 -0.688,0.2236 -1.254,0.7333 -1.702,1.5284 -0.224,1.2109 -0.456,2.8666 -0.695,4.9684 -0.24,2.1018 -0.48,4.3951 -0.719,6.8793 -0.24,2.4842 -0.48,5.0478 -0.719,7.6908 -0.24,2.6442 -0.448,5.1121 -0.624,7.4048 -0.008,0.1018 -0.014,0.1939 -0.022,0.2945 -0.28,0.2364 -0.551,0.4745 -0.841,0.7085 -1.102,0.8921 -2.262,1.6957 -3.476,2.4127 -1.215,0.7169 -2.477,1.306 -3.787,1.7678 -1.311,0.4618 -2.654,0.7406 -4.028,0.8358 l 2.973,-31.7202 c 0.192,-0.6691 0.096,-1.2575 -0.287,-1.7672 -0.384,-0.5097 -0.88,-0.86 -1.487,-1.0509 -0.607,-0.1915 -1.255,-0.1752 -1.942,0.0473 -0.687,0.2236 -1.254,0.7333 -1.702,1.5284 -0.224,1.2109 -0.455,2.8666 -0.694,4.9684 -0.241,2.1018 -0.48,4.3951 -0.72,6.8793 -0.24,2.4842 -0.479,5.0478 -0.719,7.6908 -0.239,2.6442 -0.448,5.1121 -0.623,7.4048 -0.004,0.046 -0.007,0.0878 -0.011,0.1339 -0.502,0.2321 -1.049,0.4358 -1.644,0.6067 -0.607,0.1757 -1.294,0.2793 -2.061,0.3109 0.128,-0.574 0.231,-1.2109 0.311,-1.9115 0.08,-0.7 0.145,-1.4327 0.193,-2.1976 0.048,-0.7636 0.063,-1.5284 0.048,-2.2927 -0.017,-0.7648 -0.057,-1.4648 -0.12,-2.1024 -0.161,-1.3684 -0.456,-2.6666 -0.887,-3.8932 -0.432,-1.2255 -1.015,-2.2521 -1.75,-3.0812 -0.736,-0.8279 -1.654,-1.3854 -2.758,-1.6715 -1.102,-0.2867 -2.389,-0.1915 -3.858,0.2861 -2.175,-0.2861 -4.132,-0.0867 -5.874,0.5975 -1.742,0.6855 -3.253,1.68 -4.531,2.9854 -1.278,1.3067 -2.325,2.8424 -3.14,4.6103 -0.815,1.7672 -1.359,3.583 -1.63,5.4454 -0.115,0.7896 -0.171,1.5757 -0.188,2.3599 -0.495,1.0097 -1.037,1.8921 -1.634,2.6327 -0.847,1.0509 -1.726,1.9109 -2.637,2.5794 -0.911,0.669 -1.814,1.1787 -2.708,1.529 -0.896,0.3509 -1.695,0.5897 -2.398,0.7164 -0.831,0.1594 -1.63,0.1757 -2.397,0.0479 -0.767,-0.1267 -1.471,-0.4934 -2.109,-1.0988 -0.512,-0.4455 -0.904,-1.1624 -1.175,-2.1497 -0.272,-0.9872 -0.431,-2.109 -0.479,-3.3678 -0.048,-1.2582 0,-2.5721 0.143,-3.9412 0.144,-1.369 0.391,-2.6672 0.743,-3.8932 0.352,-1.2261 0.798,-2.3248 1.343,-3.297 0.542,-0.9702 1.182,-1.6636 1.918,-2.0775 0.414,0.0642 0.671,0.3103 0.767,0.74 0.096,0.4303 0.119,0.94 0.071,1.5291 -0.047,0.5896 -0.119,1.1945 -0.215,1.8151 -0.096,0.6212 -0.144,1.1394 -0.144,1.5527 0.16,0.86 0.471,1.5291 0.935,2.0066 0.463,0.4776 0.983,0.757 1.558,0.8358 0.575,0.08 1.142,-0.0552 1.703,-0.4061 0.558,-0.3497 1.013,-0.9072 1.366,-1.6721 0.031,0.0321 0.079,0.0479 0.143,0.0479 l 0.672,-6.0666 c 0.191,-0.8285 0.063,-1.5606 -0.384,-2.1975 -0.448,-0.637 -1.039,-1.0036 -1.774,-1.0988 -0.927,-1.3376 -2.182,-2.046 -3.764,-2.126 -1.582,-0.0794 -3.204,0.4381 -4.866,1.5527 -1.023,0.7333 -1.926,1.7436 -2.709,3.0333 -0.784,1.2903 -1.422,2.723 -1.917,4.2993 -0.497,1.5763 -0.848,3.2412 -1.055,4.9927 -0.208,1.7514 -0.248,3.4557 -0.121,5.1108 0.128,1.6569 0.424,3.2175 0.888,4.6817 0.463,1.4655 1.11,2.6915 1.942,3.6782 0.703,0.86 1.501,1.4896 2.396,1.8878 0.895,0.3982 1.83,0.6443 2.805,0.74 0.975,0.0952 1.942,0.0552 2.901,-0.1194 0.959,-0.1745 1.87,-0.4212 2.733,-0.7406 1.118,-0.4133 2.27,-0.9394 3.452,-1.5763 1.182,-0.6364 2.317,-1.4012 3.404,-2.2933 0.572,-0.4691 1.122,-0.9806 1.654,-1.5291 0.242,0.5988 0.513,1.1782 0.839,1.7206 0.863,1.4327 2.029,2.5957 3.5,3.4872 1.469,0.8915 3.276,1.3206 5.417,1.2897 2.302,-0.0321 4.427,-0.6127 6.377,-1.7436 1.95,-1.1297 3.548,-2.7951 4.795,-4.9921 1.867,0 3.704,-0.3066 5.51,-0.9157 -0.015,0.1927 -0.031,0.3957 -0.045,0.5818 -0.127,1.6879 -0.192,2.8339 -0.192,3.4393 -0.031,1.0509 -0.103,2.3485 -0.215,3.8927 -0.112,1.5448 -0.184,3.1691 -0.216,4.8723 -0.031,1.704 0.032,3.424 0.192,5.16 0.16,1.735 0.495,3.312 1.007,4.73 0.51,1.416 1.237,2.619 2.181,3.607 0.942,0.986 2.181,1.576 3.716,1.767 1.63,0.222 3.036,-0.064 4.219,-0.86 1.182,-0.797 2.141,-1.887 2.877,-3.272 0.735,-1.386 1.253,-2.986 1.558,-4.801 0.303,-1.816 0.391,-3.639 0.264,-5.471 -0.129,-1.8311 -0.465,-3.5584 -1.008,-5.182 -0.543,-1.6248 -1.295,-2.9624 -2.253,-4.0139 0.576,-0.1582 1.262,-0.4606 2.062,-0.9072 0.798,-0.4455 1.621,-0.9473 2.469,-1.5049 0.208,-0.1369 0.413,-0.2812 0.621,-0.4218 -0.078,1.1285 -0.118,1.9333 -0.118,2.4048 -0.031,1.0509 -0.103,2.3485 -0.216,3.8927 -0.111,1.5448 -0.183,3.1691 -0.215,4.8723 -0.032,1.704 0.032,3.424 0.192,5.16 0.159,1.735 0.495,3.312 1.006,4.73 0.511,1.416 1.239,2.619 2.181,3.607 0.943,0.986 2.182,1.576 3.717,1.767 1.629,0.222 3.035,-0.064 4.218,-0.86 1.183,-0.797 2.142,-1.887 2.877,-3.272 0.735,-1.386 1.254,-2.986 1.558,-4.801 0.304,-1.816 0.391,-3.639 0.264,-5.471 -0.128,-1.8311 -0.464,-3.5584 -1.006,-5.182 -0.545,-1.6248 -1.295,-2.9624 -2.255,-4.0139 0.576,-0.1582 1.263,-0.4606 2.062,-0.9072 0.799,-0.4455 1.622,-0.9473 2.47,-1.5049 0.44,-0.2896 0.877,-0.5884 1.314,-0.8957 0.164,1.5575 0.518,2.9236 1.082,4.0727 0.688,1.4018 1.622,2.4842 2.805,3.249 1.182,0.7636 2.573,1.186 4.172,1.2654 1.598,0.0788 3.339,-0.2151 5.226,-0.8842 1.406,-0.5091 2.628,-1.146 3.667,-1.9103 1.038,-0.7648 1.973,-1.6963 2.805,-2.7945 0.048,-0.0636 0.093,-0.1327 0.14,-0.1969 0.148,0.446 0.312,0.8745 0.507,1.2715 0.688,1.4018 1.623,2.4842 2.805,3.249 1.182,0.7636 2.573,1.186 4.171,1.2654 1.598,0.0788 3.34,-0.2151 5.226,-0.8842 1.407,-0.5091 2.629,-1.146 3.668,-1.9103 1.038,-0.7648 1.973,-1.6963 2.805,-2.7945 0.831,-1.0993 1.589,-2.3654 2.277,-3.7981 0.687,-1.4333 1.382,-3.0727 2.086,-4.9205 0.127,-0.5091 0.007,-0.963 -0.36,-1.3612 z"
       fill="#0d0c23"
       id="path897"
       style="fill:#ffffff" />
  </g>
</svg>
